<?xml version="1.0" standalone="no"?>
<!DOCTYPE svg PUBLIC "-//W3C//DTD SVG 20010904//EN"
 "http://www.w3.org/TR/2001/REC-SVG-20010904/DTD/svg10.dtd">
<svg version="1.0" xmlns="http://www.w3.org/2000/svg"
 width="500.000000pt" height="500.000000pt" viewBox="0 0 500.000000 500.000000"
 preserveAspectRatio="xMidYMid meet">

<g transform="translate(0.000000,500.000000) scale(0.100000,-0.100000)"
fill="#000000" stroke="none">
<path d="M1522 4940 c-243 -34 -458 -138 -615 -297 -90 -91 -130 -149 -188
-268 -128 -265 -129 -555 -5 -898 132 -363 406 -805 713 -1149 339 -380 797
-685 1058 -705 84 -6 170 20 329 99 220 110 414 256 631 473 289 288 553 660
726 1020 196 409 248 701 174 990 -117 461 -562 769 -1075 742 -270 -14 -504
-102 -745 -281 -18 -14 -26 -11 -99 40 -157 107 -333 184 -503 219 -93 19
-313 27 -401 15z m439 -133 c167 -44 323 -122 477 -241 l70 -54 48 41 c72 59
202 142 286 182 264 124 617 138 877 34 256 -102 448 -313 523 -575 30 -104
32 -344 5 -469 -17 -78 -80 -271 -92 -283 -3 -4 -120 32 -258 78 l-252 85 0
90 0 90 86 5 c95 6 121 18 166 76 25 34 28 46 31 139 12 301 -99 498 -343 615
-104 49 -168 64 -285 63 -349 -1 -610 -239 -635 -580 -12 -162 8 -235 77 -286
22 -16 48 -22 118 -25 l90 -4 0 -98 0 -97 -47 -11 c-27 -6 -144 -39 -261 -72
l-213 -60 -157 72 c-86 39 -161 74 -165 78 -5 4 15 10 43 14 l51 7 -26 42
c-37 60 -102 189 -125 248 l-20 50 24 37 c53 81 92 255 84 373 -16 218 -219
376 -458 356 -87 -7 -160 -39 -205 -89 -32 -35 -39 -38 -70 -32 -30 5 -39 2
-68 -27 -19 -19 -44 -60 -55 -92 -45 -120 -21 -339 52 -472 l33 -61 -37 -86
c-21 -48 -58 -123 -83 -167 -48 -86 -47 -91 16 -91 20 0 28 -3 21 -10 -19 -19
-426 -182 -434 -173 -15 15 -78 198 -96 278 -26 111 -26 372 0 465 97 353 381
601 754 660 31 5 125 7 207 5 119 -3 170 -9 246 -28z m1461 -238 c72 -15 183
-70 239 -118 114 -99 159 -211 159 -395 0 -159 4 -154 -155 -158 l-120 -3 -5
-150 c-6 -167 -11 -182 -79 -229 -108 -75 -271 -57 -360 39 -22 24 -43 54 -46
67 -3 13 -6 79 -8 148 l-2 125 -120 3 c-155 3 -155 3 -155 146 0 227 87 379
269 470 121 62 258 81 383 55z m-1871 -235 c59 -64 187 -135 324 -180 l70 -22
-1 -69 c0 -111 -70 -234 -159 -280 -45 -24 -134 -21 -178 6 -102 63 -177 212
-177 352 0 36 75 218 91 219 3 0 16 -12 30 -26z m124 -680 c37 -5 65 -1 110
15 33 12 67 24 76 27 12 4 20 -6 32 -40 15 -44 15 -47 -24 -178 -72 -246 -157
-503 -166 -501 -10 2 -143 409 -179 546 -22 85 -23 103 -13 135 6 20 13 40 16
44 2 4 25 -4 51 -18 26 -13 70 -27 97 -30z m-331 -316 c-13 -90 -23 -176 -23
-193 -1 -22 -9 -34 -31 -47 -119 -68 -71 -268 64 -268 84 0 151 74 143 157 -6
56 -30 92 -78 112 -25 10 -37 21 -34 31 2 8 14 79 26 158 13 78 26 142 31 142
4 0 17 -33 28 -72 25 -90 175 -525 201 -585 10 -23 23 -43 28 -43 25 0 68 106
206 515 43 127 81 233 84 238 15 16 99 -128 107 -184 4 -30 1 -36 -28 -54 -51
-32 -65 -68 -79 -203 -11 -111 -11 -124 4 -139 20 -20 20 -20 41 96 9 47 22
92 30 100 8 8 39 16 69 19 82 7 95 -11 127 -170 7 -37 16 -58 25 -58 24 0 27
37 11 122 -9 46 -18 99 -21 118 -7 48 -39 97 -79 120 -27 17 -35 30 -45 74 -7
29 -27 79 -46 111 l-35 57 28 -7 c15 -3 82 -33 150 -66 114 -55 125 -63 156
-112 69 -108 92 -163 235 -564 22 -62 36 -115 31 -118 -11 -7 -57 3 -88 18
-13 6 -30 26 -37 44 -16 39 -56 58 -86 43 -14 -8 -19 -21 -19 -49 0 -50 43
-109 101 -138 42 -21 58 -22 406 -25 252 -2 363 -6 363 -14 0 -24 -160 -134
-289 -199 -118 -59 -243 -100 -376 -121 -116 -19 -130 -29 -115 -84 7 -24 10
-25 77 -23 171 5 446 106 638 236 82 55 172 133 192 167 14 24 23 28 77 33 34
2 64 1 69 -2 11 -10 -151 -189 -279 -308 -183 -172 -355 -294 -542 -388 -226
-113 -300 -112 -537 8 -397 199 -810 610 -1128 1122 -85 138 -197 344 -197
364 0 14 5 16 265 121 105 43 192 76 195 74 3 -1 -4 -76 -16 -166z m1703 121
c25 -22 70 -53 101 -67 49 -23 70 -27 152 -27 82 0 103 4 152 27 31 14 77 45
102 68 l46 42 134 -41 c177 -55 366 -118 372 -124 9 -8 -93 -204 -183 -353
-46 -77 -121 -189 -166 -250 l-82 -109 -415 -3 c-228 -1 -429 0 -446 3 -30 5
-34 11 -64 98 -133 382 -195 547 -216 579 -13 21 -24 42 -24 47 0 6 39 22 88
37 173 53 377 112 391 113 8 1 34 -17 58 -40z m-846 -265 c25 -22 26 -49 2
-38 -32 14 -100 16 -123 4 -36 -19 -37 0 -1 32 28 25 40 29 69 25 19 -4 43
-14 53 -23z m-792 -162 c41 -32 25 -116 -24 -128 -52 -13 -95 20 -95 72 0 64
69 97 119 56z"/>
<path d="M3110 4434 c-25 -14 -55 -39 -68 -55 -13 -16 -32 -29 -41 -29 -25 0
-68 -36 -77 -63 -4 -12 -20 -37 -35 -55 -24 -27 -29 -42 -29 -86 0 -59 21 -96
70 -121 33 -17 87 -19 124 -5 18 7 35 5 62 -6 30 -12 68 -14 208 -10 94 3 201
5 238 5 108 -1 162 35 175 114 7 43 -28 123 -58 132 -10 4 -19 12 -19 20 0 24
-50 73 -82 80 -17 4 -43 21 -57 38 -49 58 -145 83 -201 53 -21 -12 -29 -12
-52 0 -42 22 -107 17 -158 -12z m144 -46 c13 -18 16 -53 16 -170 l0 -148 -65
0 c-62 0 -65 1 -65 25 0 14 -8 29 -21 35 -17 10 -26 6 -60 -24 -45 -42 -84
-47 -118 -15 -16 16 -21 30 -19 56 4 47 29 64 57 39 11 -10 25 -15 30 -11 17
10 13 40 -9 60 -26 23 -25 41 1 55 17 9 23 8 33 -5 20 -28 51 -15 49 20 -3 34
12 55 38 55 21 0 39 -28 39 -60 0 -16 5 -21 23 -18 30 4 34 40 7 82 -15 26
-17 35 -8 39 29 12 58 6 72 -15z m156 3 c0 -4 -7 -16 -15 -27 -18 -24 -19 -68
-1 -83 16 -14 32 2 38 38 8 57 68 48 68 -11 0 -36 24 -47 51 -22 19 17 20 17
40 -2 l20 -20 -22 -27 c-24 -31 -19 -63 9 -52 43 19 58 17 70 -9 22 -49 -19
-106 -77 -106 -10 0 -30 9 -44 20 -14 11 -32 20 -41 20 -9 0 -21 -9 -28 -20
-11 -17 -24 -20 -85 -20 -66 0 -73 2 -73 19 0 31 42 72 80 80 26 5 35 12 35
26 0 17 -7 20 -40 19 -22 0 -48 -4 -58 -8 -16 -8 -18 -2 -15 85 3 87 5 94 26
105 23 12 62 8 62 -5z"/>
<path d="M1990 2765 c-7 -9 -11 -17 -9 -20 12 -11 94 -43 101 -39 16 10 8 44
-10 44 -10 0 -27 7 -38 15 -24 18 -29 18 -44 0z"/>
<path d="M2243 2751 c-52 -26 -66 -47 -39 -57 18 -7 95 32 103 52 11 29 -12
31 -64 5z"/>
<path d="M3216 3215 c-110 -39 -166 -173 -117 -280 37 -82 103 -125 190 -125
62 0 89 10 135 51 51 44 76 97 76 159 0 67 -18 107 -68 152 -62 56 -138 71
-216 43z m122 -107 c3 -33 6 -37 34 -40 40 -4 55 -28 42 -65 -7 -22 -17 -29
-42 -31 -29 -3 -32 -6 -32 -38 l0 -34 -50 0 -50 0 0 35 c0 32 -3 35 -28 35
-37 0 -52 17 -52 56 0 34 13 44 56 44 21 0 24 4 24 41 l0 40 48 -3 c46 -3 47
-3 50 -40z"/>
<path d="M3780 930 l0 -380 70 0 70 0 0 380 0 380 -70 0 -70 0 0 -380z"/>
<path d="M4020 930 l0 -381 73 3 72 3 5 99 5 99 85 -101 85 -101 88 0 c68 -1
86 2 81 12 -4 6 -55 67 -112 135 -92 108 -102 125 -91 140 7 9 53 60 101 114
48 53 88 99 88 102 0 3 -36 6 -80 6 l-79 0 -83 -94 c-46 -51 -86 -92 -90 -89
-5 2 -8 101 -8 219 l0 214 -70 0 -70 0 0 -380z"/>
<path d="M789 1287 c-109 -31 -203 -111 -252 -215 -29 -61 -32 -76 -32 -163 0
-90 2 -99 38 -172 61 -123 168 -193 311 -204 85 -7 190 20 240 60 l29 23 -37
52 -38 52 -38 -20 c-53 -27 -139 -36 -195 -20 -104 29 -182 143 -172 251 15
163 159 260 317 214 97 -28 92 -29 130 22 19 26 37 51 38 55 2 5 -25 22 -61
39 -77 36 -202 48 -278 26z"/>
<path d="M2632 1213 l3 -68 98 -3 97 -3 0 -294 0 -295 68 0 69 0 7 209 c3 115
3 247 0 295 l-7 85 104 3 104 3 3 68 3 67 -276 0 -276 0 3 -67z"/>
<path d="M1290 1049 c-92 -41 -140 -113 -148 -220 -15 -210 175 -356 348 -266
l49 25 3 -21 c3 -19 10 -22 48 -22 87 -1 80 -24 80 261 l0 254 -65 0 c-58 0
-65 -2 -65 -19 0 -24 -16 -36 -26 -20 -13 21 -89 49 -134 49 -25 0 -65 -10
-90 -21z m181 -124 c99 -51 89 -218 -14 -252 -50 -17 -93 -6 -132 32 -37 38
-49 83 -35 134 13 45 29 67 66 86 37 19 77 19 115 0z"/>
<path d="M2026 1060 c-16 -5 -46 -23 -67 -40 l-38 -30 -3 33 -3 32 -67 3 -68
3 0 -256 0 -255 70 0 70 0 0 146 0 146 38 38 c26 26 49 39 80 44 l42 6 0 70
c0 75 -1 76 -54 60z"/>
<path d="M2285 1057 c-122 -47 -185 -149 -171 -280 10 -101 65 -176 161 -218
56 -25 159 -29 210 -10 49 19 105 62 105 81 0 9 -17 30 -37 46 l-38 30 -34
-23 c-40 -27 -116 -31 -161 -8 -24 13 -70 70 -70 89 0 3 86 6 191 6 l192 0 -5
63 c-8 101 -66 186 -150 221 -44 19 -149 20 -193 3z m171 -141 c60 -60 51 -66
-86 -66 -137 0 -146 6 -86 66 30 30 40 34 86 34 46 0 56 -4 86 -34z"/>
<path d="M3320 1061 c-110 -34 -170 -114 -178 -239 -7 -115 36 -206 122 -257
79 -46 177 -43 249 7 27 19 27 19 27 -1 0 -19 6 -21 70 -21 l70 0 0 255 0 255
-70 0 c-68 0 -70 -1 -70 -25 0 -26 -14 -33 -26 -14 -22 36 -132 58 -194 40z
m151 -136 c42 -22 69 -71 69 -125 0 -150 -188 -190 -246 -53 -51 119 65 235
177 178z"/>
<path d="M561 313 c-44 -88 -61 -133 -50 -133 5 0 15 11 21 25 10 22 17 25 63
25 47 0 53 -3 65 -27 7 -16 14 -23 17 -17 4 11 -72 184 -81 184 -3 0 -19 -26
-35 -57z m55 -18 c19 -46 19 -45 -21 -45 -19 0 -35 5 -35 10 0 14 29 70 36 70
3 0 12 -16 20 -35z"/>
<path d="M727 363 c-11 -11 -8 -173 3 -173 6 0 10 37 10 90 0 90 -1 96 -13 83z"/>
<path d="M1955 360 c-4 -6 -5 -22 -3 -37 3 -27 2 -27 -44 -24 -38 2 -48 -1
-57 -18 -16 -30 -13 -66 7 -84 21 -19 67 -23 77 -7 5 8 11 7 21 -1 12 -10 14
3 14 85 0 94 -2 107 -15 86z m-17 -82 c21 -21 15 -67 -12 -79 -34 -16 -66 3
-66 39 0 33 16 52 45 52 12 0 26 -5 33 -12z"/>
<path d="M2227 363 c-4 -3 -7 -21 -7 -40 l0 -33 -55 0 -55 0 0 35 c0 19 -4 35
-10 35 -6 0 -10 -37 -10 -90 0 -53 4 -90 10 -90 6 0 10 20 10 45 l0 45 55 0
55 0 0 -39 c0 -22 5 -43 10 -46 6 -4 10 28 10 89 0 96 -1 102 -13 89z"/>
<path d="M2768 364 c-12 -11 -10 -172 2 -179 6 -4 10 12 10 40 0 38 4 47 24
57 41 18 56 5 56 -52 0 -27 5 -50 10 -50 6 0 10 22 10 50 0 41 -4 52 -24 65
-19 13 -29 14 -45 6 -29 -16 -30 -15 -33 30 -2 22 -6 37 -10 33z"/>
<path d="M3568 354 c-103 -55 -23 -210 86 -168 9 3 16 10 16 15 0 5 -12 4 -27
-2 -78 -30 -136 79 -72 137 14 12 29 15 61 11 39 -5 41 -4 24 9 -25 18 -53 17
-88 -2z"/>
<path d="M3700 274 c0 -61 4 -93 10 -89 6 3 10 26 10 50 0 39 3 45 24 51 36 9
46 -2 46 -51 0 -24 5 -47 10 -50 17 -11 12 92 -6 109 -18 19 -16 19 -47 7 -29
-11 -38 1 -30 42 3 16 1 27 -6 27 -7 0 -11 -32 -11 -96z"/>
<path d="M4110 274 c0 -82 2 -95 14 -85 10 8 16 9 21 1 10 -16 50 -12 68 8 21
23 22 75 2 92 -8 7 -31 10 -50 8 -35 -4 -35 -4 -35 34 0 21 -4 38 -10 38 -6 0
-10 -39 -10 -96z m99 -6 c17 -47 -19 -89 -59 -68 -23 12 -28 75 -7 83 30 13
58 6 66 -15z"/>
<path d="M937 353 c-11 -11 -8 -163 3 -163 6 0 10 14 10 30 0 28 3 30 35 30
58 0 98 63 63 98 -13 13 -100 17 -111 5z m101 -31 c5 -33 -15 -52 -54 -52 -32
0 -34 2 -34 33 0 43 6 49 50 45 28 -2 36 -8 38 -26z"/>
<path d="M2600 269 c0 -57 4 -88 10 -84 6 3 10 44 10 91 0 49 -4 84 -10 84 -6
0 -10 -37 -10 -91z"/>
<path d="M2660 282 c0 -74 15 -106 45 -101 27 6 29 26 3 25 -20 -1 -23 5 -26
43 -3 40 -1 43 17 38 12 -3 24 -1 27 4 5 9 -9 13 -33 10 -8 -1 -13 9 -13 24 0
14 -4 25 -10 25 -6 0 -10 -29 -10 -68z"/>
<path d="M4013 314 c-6 -13 -7 -24 -2 -24 5 0 9 -18 9 -39 0 -22 3 -46 6 -55
7 -18 39 -22 49 -6 3 6 -3 10 -14 10 -18 0 -21 6 -21 45 0 33 4 45 15 45 8 0
15 4 15 10 0 5 -7 7 -15 4 -9 -4 -18 2 -22 14 -8 20 -8 20 -20 -4z"/>
<path d="M4430 321 c0 -11 -8 -22 -17 -24 -16 -4 -16 -5 -1 -6 13 -1 18 -13
20 -53 3 -51 4 -53 33 -55 27 -2 28 -2 8 7 -19 8 -23 17 -23 54 0 34 4 46 18
49 16 4 16 5 0 6 -11 1 -18 9 -18 21 0 11 -4 20 -10 20 -5 0 -10 -9 -10 -19z"/>
<path d="M1102 287 c-27 -29 -28 -61 -2 -87 29 -29 74 -26 99 7 24 30 20 58
-11 86 -28 24 -60 21 -86 -6z m89 -23 c12 -32 -11 -74 -41 -74 -40 0 -66 60
-38 88 7 7 25 12 40 12 22 0 31 -6 39 -26z"/>
<path d="M1475 289 c-22 -18 -26 -27 -21 -53 4 -17 14 -37 23 -43 20 -15 79
-17 88 -4 3 6 -8 8 -28 4 -28 -4 -37 -1 -51 18 l-17 24 52 5 c59 6 70 19 40
49 -27 27 -51 26 -86 0z m73 -11 c21 -21 13 -28 -33 -28 -25 0 -45 4 -45 8 0
15 24 32 45 32 12 0 26 -5 33 -12z"/>
<path d="M2320 303 c-43 -15 -54 -82 -18 -107 26 -19 74 -21 84 -5 5 9 -1 10
-21 5 -19 -5 -33 -2 -46 10 -29 26 -23 33 28 36 53 3 63 18 34 47 -21 21 -33
24 -61 14z m57 -36 c-4 -13 -77 -23 -77 -10 0 13 14 30 30 35 20 7 52 -10 47
-25z"/>
<path d="M2446 286 c-31 -30 -33 -59 -6 -86 21 -21 65 -27 75 -10 5 8 11 8 20
0 19 -16 23 -2 16 55 -4 34 -11 51 -21 52 -8 1 -25 5 -37 8 -16 5 -29 0 -47
-19z m78 -15 c21 -23 14 -56 -15 -71 -40 -22 -82 28 -59 70 14 25 51 26 74 1z"/>
<path d="M2960 303 c-50 -19 -65 -68 -30 -103 21 -21 74 -27 85 -10 4 6 -5 10
-23 8 -17 -1 -37 4 -46 11 -37 31 -4 86 47 78 27 -4 28 -3 12 10 -20 14 -22
14 -45 6z"/>
<path d="M3063 295 c-16 -11 -23 -26 -23 -50 0 -52 40 -80 80 -55 9 5 19 5 27
-2 10 -8 13 2 13 50 0 51 -3 61 -17 61 -10 -1 -27 2 -38 6 -12 3 -30 -1 -42
-10z m75 -42 c6 -56 -62 -79 -82 -27 -11 28 21 66 52 62 22 -2 28 -9 30 -35z"/>
<path d="M3330 297 c-32 -16 -40 -70 -14 -98 18 -20 78 -26 89 -9 4 6 -6 7
-24 4 -33 -7 -61 8 -61 32 0 10 13 14 45 14 41 0 45 2 45 25 0 18 -7 28 -26
35 -30 12 -24 12 -54 -3z m65 -27 c0 -10 -12 -16 -37 -18 -37 -3 -51 12 -31
32 13 13 68 2 68 -14z"/>
<path d="M3882 300 c-29 -12 -44 -52 -32 -85 11 -28 55 -43 80 -27 13 8 21 7
29 -1 6 -6 11 -7 12 -1 1 14 -2 109 -4 110 -11 9 -67 11 -85 4z m68 -30 c15
-28 5 -55 -25 -68 -21 -10 -28 -9 -45 8 -24 24 -25 43 -4 64 22 22 61 20 74
-4z"/>
<path d="M1236 278 c35 -112 45 -119 69 -49 9 28 20 51 24 51 4 0 14 -21 22
-47 8 -25 20 -48 26 -50 6 -2 21 21 32 52 24 63 24 65 12 65 -4 0 -14 -20 -21
-45 -7 -25 -16 -45 -19 -45 -4 0 -13 19 -21 42 -21 60 -44 61 -60 3 -7 -25
-16 -45 -20 -45 -4 0 -13 20 -20 45 -7 25 -17 45 -22 45 -5 0 -6 -10 -2 -22z"/>
<path d="M1614 291 c-9 -9 -3 -111 6 -111 6 0 10 20 10 45 0 39 3 47 25 55 14
5 25 12 25 14 0 6 -60 3 -66 -3z"/>
<path d="M1705 276 c-19 -29 -11 -72 15 -86 25 -13 77 -13 85 1 5 7 -4 8 -27
4 -26 -5 -39 -2 -51 10 -27 27 -20 35 33 35 41 0 50 3 50 18 0 47 -78 60 -105
18z m83 -8 c3 -15 -4 -18 -32 -18 -34 0 -47 15 -29 34 13 13 58 1 61 -16z"/>
<path d="M3211 236 c1 -64 3 -65 14 -4 4 27 13 42 33 52 l27 14 -38 -1 -37 -1
1 -60z"/>
<path d="M4277 282 c-53 -58 25 -132 91 -86 27 19 29 64 4 87 -25 22 -75 21
-95 -1z m81 -4 c21 -21 15 -67 -12 -79 -34 -16 -66 3 -66 39 0 33 16 52 45 52
12 0 26 -5 33 -12z"/>
<path d="M790 270 c0 -5 14 -10 30 -10 17 0 30 5 30 10 0 6 -13 10 -30 10 -16
0 -30 -4 -30 -10z"/>
</g>
</svg>
